PathFileType	4	(X/Y/Z)	3_coords_data.trc
DataRate	CameraRate	NumFrames	NumMarkers	Units	OrigDataRate	OrigDataStartFrame	OrigNumFrames
30.0	30.0	8	21	m	30.0	10	78
Frame#	Time	THUMB_TIP	THUMB_IP	THUMB_MCP	THUMB_CMC	INDEX_TIP	INDEX_DIP	INDEX_PIP	INDEX_MCP	MIDDLE_TIP	MIDDLE_DIP	MIDDLE_PIP	MIDDLE_MCP	RING_TIP	RING_DIP	RING_PIP	RING_MCP	PINKY_TIP	PINKY_DIP	PINKY_PIP	PINKY_MCP	WRIST
X1	Y1	Z1	X2	Y2	Z2	X3	Y3	Z3	X4	Y4	Z4	X5	Y5	Z5	X6	Y6	Z6	X7	Y7	Z7	X8	Y8	Z8	X9	Y9	Z9	X10	Y10	Z10	X11	Y11	Z11	X12	Y12	Z12	X13	Y13	Z13	X14	Y14	Z14	X15	Y15	Z15	X16	Y16	Z16	X17	Y17	Z17	X18	Y18	Z18	X19	Y19	Z19	X20	Y20	Z20	X21	Y21	Z21
9	0.3	-0.17956500244140625	-0.13606199645996095	0.930719970703125	-0.17022300720214845	-0.11047100067138672	0.9399920043945312	-0.1713249969482422	-0.08862770080566407	0.9626170043945312	-0.17117300415039063	-0.0563031005859375	0.9854119873046875	-0.1656999969482422	-0.058738399505615234	0.9584959716796875	-0.14667399597167968	-0.0520807991027832	0.9523389892578125	-0.1414340057373047	-0.04796889877319336	0.9295700073242188	-0.18024200439453125	-0.05945669937133789	0.9279329833984375	-0.16080400085449217	-0.04133679962158203	0.9658480224609375	-0.14950599670410156	-0.034856098175048825	0.9608930053710938	-0.14506700134277345	-0.027473400115966797	0.9352080078125	-0.18495199584960936	-0.0362328987121582	0.9277039794921875	-0.16996800231933593	-0.02882390022277832	0.973343017578125	-0.1563249969482422	-0.01980109977722168	0.9679249877929688	-0.1528260040283203	-0.009294899940490722	0.944708984375	-0.1906529998779297	-0.01666349983215332	0.9369110107421875	-0.1750279998779297	-0.016437000274658203	0.9757659912109375	-0.16217300415039063	-0.00643844985961914	0.971323974609375	-0.16301699829101562	0.0038767399787902833	0.9560120239257812	-0.19407499694824218	2.3223200812935004e-05	0.9482449951171875	-0.1902209930419922	-0.03518550109863281	1.0087899780273437
10	0.3333333333333333	-0.17958599853515625	-0.13604600524902344	0.9309320068359375	-0.1701540069580078	-0.1104729995727539	0.9401599731445313	-0.17136700439453126	-0.08854000091552734	0.9627949829101563	-0.17094200134277343	-0.05606819915771484	0.98547900390625	-0.16566999816894531	-0.058846099853515625	0.9585560302734375	-0.14691900634765626	-0.05197040176391601	0.9523629760742187	-0.1417469940185547	-0.047749000549316405	0.929406005859375	-0.17961199951171875	-0.05944430160522461	0.9277020263671875	-0.1613780059814453	-0.041201900482177735	0.9658300170898437	-0.14994200134277344	-0.034655399322509765	0.9607730102539063	-0.14521400451660157	-0.027375999450683593	0.9354299926757812	-0.18505099487304688	-0.036273101806640624	0.927781005859375	-0.17030499267578125	-0.02877370071411133	0.9734429931640625	-0.15710000610351563	-0.019478099822998047	0.9678920288085937	-0.15301300048828126	-0.009195280075073243	0.9449509887695312	-0.1908560028076172	-0.016598400115966798	0.9370999755859375	-0.17552200317382813	-0.01619420051574707	0.975447021484375	-0.16225399780273436	-0.0064305100440979	0.9713889770507812	-0.16316299438476561	0.0038933899402618407	0.956135009765625	-0.19421400451660156	0.000141013994812965	0.9484509887695313	-0.19080499267578124	-0.034884700775146486	1.0093599853515625
11	0.36666666666666664	-0.17925100708007813	-0.13601100158691407	0.93122900390625	-0.17039700317382814	-0.11007599639892578	0.9402899780273437	-0.17132899475097657	-0.08844329833984375	0.9629409790039063	-0.17095700073242187	-0.05603110122680664	0.9856119995117187	-0.16552200317382812	-0.05881840133666992	0.9588660278320312	-0.14637399291992187	-0.05177209854125977	0.9525029907226562	-0.14185499572753907	-0.04753179931640625	0.9295999755859375	-0.18069999694824218	-0.05939049911499023	0.9283070068359375	-0.16076699829101562	-0.040916999816894534	0.965822021484375	-0.15080900573730469	-0.03435800170898438	0.9607579956054687	-0.14540899658203124	-0.027218999862670897	0.9359010009765625	-0.18546600341796876	-0.03617480087280273	0.9280449829101562	-0.17033700561523438	-0.02865920066833496	0.9737589721679687	-0.1571929931640625	-0.01937610054016113	0.9681069946289063	-0.15333700561523436	-0.009010519981384277	0.9449819946289062	-0.19117100524902345	-0.016600000381469728	0.9372360229492187	-0.175593994140625	-0.016198099136352537	0.9758419799804687	-0.16258399963378906	-0.006268509864807129	0.971489990234375	-0.16334300231933593	0.0040637898445129396	0.9559979858398437	-0.19458200073242188	0.000104220002889633	0.9485579833984376	-0.19038099670410155	-0.03499160003662109	1.0092000122070313
12	0.4	-0.17927699279785156	-0.13589100646972657	0.9313060302734375	-0.17014100646972657	-0.11011100006103515	0.94052197265625	-0.1713459930419922	-0.08835459899902344	0.96310400390625	-0.17023300170898437	-0.055775299072265624	0.985677001953125	-0.16574899291992187	-0.058553699493408204	0.9588070068359374	-0.14704800415039063	-0.05153319931030274	0.9526580200195313	-0.14172500610351563	-0.047388099670410154	0.929822998046875	-0.18057200622558595	-0.059286998748779296	0.9284030151367187	-0.16110800170898437	-0.040786701202392577	0.96606201171875	-0.15013099670410157	-0.03440090179443359	0.9608909912109375	-0.14535899353027343	-0.027136499404907227	0.9362739868164063	-0.18541299438476563	-0.03600149917602539	0.9280650024414062	-0.17083200073242188	-0.02853689956665039	0.973344970703125	-0.1565330047607422	-0.019390100479125975	0.9682930297851563	-0.1534459991455078	-0.008839300155639648	0.9451060180664063	-0.19115899658203125	-0.016502799987792968	0.9373300170898438	-0.1749759979248047	-0.01606049919128418	0.9757479858398438	-0.16278799438476563	-0.006054259777069092	0.9716939697265625	-0.16349600219726562	0.004165369987487793	0.9561849975585938	-0.19463499450683594	0.000209088996052742	0.9487319946289062	-0.19004400634765625	-0.034765598297119144	1.00952001953125
13	0.43333333333333335	-0.1791719970703125	-0.13578300476074218	0.931426025390625	-0.17010200500488282	-0.11006600189208984	0.9406610107421876	-0.17127200317382812	-0.0882843017578125	0.9633109741210938	-0.17105299377441407	-0.05579470062255859	0.9859180297851563	-0.16488499450683594	-0.05844380187988281	0.959343017578125	-0.146375	-0.0516776008605957	0.9527839965820313	-0.1419149932861328	-0.04717190170288086	0.92993701171875	-0.1801699981689453	-0.059112098693847655	0.9284210205078125	-0.16138499450683594	-0.040907299041748044	0.96635498046875	-0.15034500122070313	-0.03408810043334961	0.9613140258789062	-0.14561900329589844	-0.026926300048828126	0.9357260131835937	-0.185468994140625	-0.03593239974975586	0.9282899780273437	-0.17075799560546875	-0.028458200454711913	0.9737880249023437	-0.15753599548339844	-0.019095199584960938	0.9681019897460937	-0.15350799560546874	-0.008773920059204101	0.9453560180664062	-0.1910540008544922	-0.016281400680541992	0.9375479736328125	-0.17685899353027343	-0.015749899864196778	0.975594970703125	-0.1631060028076172	-0.005971829891204834	0.9719730224609375	-0.16350999450683593	0.004297210216522217	0.9565960083007813	-0.1947550048828125	0.000293525993824005	0.9489959716796875	-0.18989199829101563	-0.034794898986816404	1.0096099853515625
14	0.4666666666666667	-0.1793000030517578	-0.13576699829101563	0.9315330200195312	-0.17007899475097657	-0.11006500244140625	0.9407670288085938	-0.17100799560546875	-0.0881781997680664	0.9633720092773438	-0.17114100646972658	-0.055830799102783206	0.9860700073242188	-0.16405400085449218	-0.05847930145263672	0.9592479858398437	-0.14696600341796875	-0.0514906997680664	0.9529559936523437	-0.14188299560546874	-0.04724620056152344	0.9301699829101563	-0.18038299560546875	-0.05907429885864258	0.928583984375	-0.16128199768066406	-0.04065729904174804	0.96647998046875	-0.15027099609375	-0.034250301361083986	0.9613070068359375	-0.14567799377441407	-0.026892499923706056	0.9358079833984375	-0.18525	-0.035937301635742186	0.9283359985351562	-0.16984100341796876	-0.028404199600219726	0.973989990234375	-0.15761099243164062	-0.019094999313354493	0.968469970703125	-0.15358500671386718	-0.008708709716796876	0.9454409790039062	-0.19121099853515625	-0.01639929962158203	0.9377789916992187	-0.17455900573730468	-0.015998100280761717	0.9769229736328126	-0.1628280029296875	-0.005955009937286377	0.972030029296875	-0.16372000122070313	0.004307970046997071	0.9565910034179688	-0.19494500732421874	0.00030574500560760505	0.9491619873046875	-0.19025799560546874	-0.03483369827270508	1.009530029296875
15	0.5	-0.17916299438476563	-0.13577900695800782	0.9316740112304688	-0.1701320037841797	-0.11002300262451171	0.940926025390625	-0.1713780059814453	-0.08828420257568359	0.963583984375	-0.17112699890136718	-0.05579449844360351	0.9862680053710937	-0.16583099365234374	-0.058302398681640624	0.9591740112304687	-0.1470469970703125	-0.05150429916381836	0.9530390014648438	-0.14193899536132812	-0.04724509811401367	0.930239013671875	-0.18035699462890625	-0.05907569885253906	0.9287379760742187	-0.16142799377441405	-0.041054000854492186	0.966780029296875	-0.14985000610351562	-0.03444620132446289	0.9616699829101563	-0.14554200744628906	-0.02704570007324219	0.93652197265625	-0.1854199981689453	-0.03591019821166992	0.9286500244140625	-0.17057400512695312	-0.02821529960632324	0.9743790283203125	-0.15741900634765624	-0.019053600311279298	0.9683049926757813	-0.15348500061035156	-0.00877245044708252	0.9456740112304688	-0.19104200744628907	-0.016326000213623047	0.9379600219726563	-0.17430499267578126	-0.01602149963378906	0.97697900390625	-0.1627259979248047	-0.005924459934234619	0.9722310180664062	-0.16364999389648438	0.004290480136871338	0.9568619995117188	-0.19488999938964843	0.000284716010093688	0.9493809814453125	-0.19031199645996094	-0.03474200057983398	1.0095599975585938
16	0.5333333333333333	-0.17913499450683593	-0.13575100708007812	0.9317429809570312	-0.17005099487304687	-0.11008799743652344	0.9410020141601563	-0.17098699951171875	-0.08826470184326173	0.9636630249023438	-0.17020899963378905	-0.05574380111694336	0.9863770141601562	-0.16533299255371095	-0.05862879943847656	0.9593989868164062	-0.1470449981689453	-0.05162829971313477	0.953447021484375	-0.1419010009765625	-0.047208999633789064	0.9303330078125	-0.1807530059814453	-0.05918220138549805	0.929093994140625	-0.16207099914550782	-0.04062149810791016	0.9669530029296876	-0.14989199829101563	-0.034415699005126955	0.9620250244140625	-0.14546400451660157	-0.026977899551391602	0.9365880126953126	-0.18549699401855468	-0.035914798736572266	0.9287429809570312	-0.16970399475097656	-0.028523199081420897	0.9744730224609375	-0.1564100036621094	-0.0191387996673584	0.9688619995117187	-0.1534429931640625	-0.00875133991241455	0.945833984375	-0.19106700134277343	-0.016320600509643554	0.9380390014648438	-0.1769770050048828	-0.015850299835205077	0.9769320068359375	-0.16271400451660156	-0.006010540008544922	0.9725640258789062	-0.16341400146484375	0.0043181700706481935	0.9570770263671875	-0.19427900695800782	0.000230279996991157	0.949280029296875	-0.19019900512695312	-0.034771400451660155	1.0100999755859374
